<svg width="235" height="105" viewBox="0 0 235 105" fill="none" xmlns="http://www.w3.org/2000/svg">
<path d="M37.9197 52.2366V32.8187H18.8101L37.9197 13.7091H57.3375V32.8187L37.9197 52.2366Z" fill="#E11638"/>
<path d="M18.6871 104.649L6.64697 104.455V92.4144L18.6871 80.3742H30.9215V92.4144L18.6871 104.649Z" fill="#E11638"/>
<path d="M38.8357 90.2828V71.4814H0V51.7553L18.8014 32.9539V51.7553H57.6371V71.4814L38.8357 90.2828Z" fill="#E11638"/>
<path d="M100.864 74.0479C94.7949 74.0479 90.0575 72.6725 86.6518 69.9218C83.2461 67.171 81.5214 63.0667 81.4778 57.6089H87.1758C87.3068 65.2498 91.8695 69.0703 100.864 69.0703C104.663 69.0703 107.566 68.3281 109.575 66.8435C111.627 65.359 112.653 63.1977 112.653 60.3596C112.653 58.1328 111.802 56.4081 110.099 55.1856C108.44 53.9193 105.514 52.8278 101.323 51.9109L97.1964 50.9939C92.4808 49.9024 88.9441 48.3305 86.5863 46.2783C84.2285 44.1825 83.0496 41.2571 83.0496 37.5021C83.0496 33.7908 84.4905 30.8435 87.3722 28.6604C90.254 26.4336 94.1182 25.3202 98.9647 25.3202C102.239 25.3202 105.078 25.7132 107.479 26.4991C109.924 27.285 111.823 28.3984 113.177 29.8393C114.531 31.2365 115.513 32.7647 116.124 34.4239C116.779 36.0831 117.128 37.9169 117.172 39.9254H111.54C111.278 36.607 110.186 34.1837 108.265 32.6555C106.387 31.0837 103.287 30.2978 98.9647 30.2978C95.69 30.2978 93.1576 30.9309 91.3674 32.1971C89.6209 33.4633 88.7476 35.2316 88.7476 37.5021C88.7476 39.7726 89.5117 41.5409 91.0399 42.8072C92.5245 44.0734 95.4062 45.1868 99.6852 46.1474L103.811 47.0643C108.964 48.1995 112.675 49.8369 114.945 51.9763C117.216 54.0722 118.351 56.8666 118.351 60.3596C118.351 64.5949 116.801 67.9351 113.701 70.3802C110.601 72.8253 106.322 74.0479 100.864 74.0479ZM152.681 73H146.59L135.194 54.8581L129.168 60.4906V73H123.929V26.3681H129.168V54.3341L144.821 39.205H151.764L138.927 51.3869L152.681 73ZM182.907 68.7429H184.807V73C183.933 73.131 182.973 73.1965 181.925 73.1965C178.388 73.1965 176.489 71.581 176.227 68.3499C173.869 71.9739 170.201 73.7859 165.224 73.7859C161.513 73.7859 158.587 72.9345 156.448 71.2317C154.352 69.4851 153.304 67.04 153.304 63.8963C153.304 57.7835 157.474 54.2905 165.813 53.4172L170.66 52.8933C174.197 52.5003 175.965 50.9503 175.965 48.2432C175.965 46.3657 175.376 45.0121 174.197 44.1825C173.061 43.3529 171.118 42.9381 168.368 42.9381C165.442 42.9381 163.325 43.4403 162.015 44.4445C160.748 45.4051 160.028 47.1298 159.853 49.6186H154.614C155.05 42.1522 159.635 38.419 168.368 38.419C176.838 38.419 181.074 41.6937 181.074 48.2432V67.1055C181.074 68.1971 181.685 68.7429 182.907 68.7429ZM165.486 69.3323C168.28 69.3323 170.725 68.4809 172.821 66.778C174.917 65.1189 175.965 62.7392 175.965 59.6392V55.644C175.004 56.3863 173.52 56.8666 171.511 57.0849L166.599 57.6743C163.761 58.0236 161.731 58.6786 160.508 59.6392C159.329 60.5998 158.74 61.9751 158.74 63.7653C158.74 65.5118 159.308 66.8872 160.443 67.8914C161.578 68.852 163.259 69.3323 165.486 69.3323ZM194.343 73H189.103V26.3681H194.343V73ZM231.687 56.1025V57.9363H206.014C206.276 61.604 207.302 64.3766 209.092 66.2541C210.882 68.0879 213.327 69.0049 216.427 69.0049C221.099 69.0049 224.09 66.909 225.4 62.7174H230.836C229.919 66.1231 228.216 68.8302 225.727 70.8387C223.239 72.8035 220.095 73.7859 216.296 73.7859C211.624 73.7859 207.847 72.1922 204.966 69.0049C202.04 65.8175 200.578 61.5167 200.578 56.1025C200.578 50.7756 202.018 46.4967 204.9 43.2656C207.738 40.0346 211.493 38.419 216.165 38.419C221.012 38.419 224.81 40.1001 227.561 43.4621C230.312 46.8241 231.687 51.0376 231.687 56.1025ZM216.165 43.2001C213.414 43.2001 211.166 44.0734 209.419 45.8199C207.673 47.5227 206.581 49.9897 206.145 53.2207H226.055C225.793 50.2517 224.789 47.8502 223.042 46.0164C221.296 44.1389 219.003 43.2001 216.165 43.2001Z" fill="white"/>
<path d="M86.0624 89.8973H89.3396C90.8143 89.8973 91.9796 90.3251 92.8353 91.1808C93.6819 92.0366 94.1052 93.2291 94.1052 94.7585C94.1052 96.2696 93.6819 97.4576 92.8353 98.3224C91.9705 99.1872 90.8052 99.6197 89.3396 99.6197H86.0624V89.8973ZM87.2094 98.5819H89.3396C90.4866 98.5819 91.3651 98.2451 91.975 97.5714C92.5941 96.8978 92.9036 95.9601 92.9036 94.7585C92.9036 93.5568 92.5941 92.6192 91.975 91.9455C91.3651 91.2719 90.4866 90.935 89.3396 90.935H87.2094V98.5819ZM109.596 99.6197H108.449V89.8973H109.596V99.6197ZM128.766 95.6597V94.6219H132.904V99.6197H131.961L131.716 98.3088C130.996 99.3284 129.936 99.8381 128.534 99.8381C127.141 99.8381 126.031 99.3693 125.202 98.4317C124.356 97.5031 123.932 96.2787 123.932 94.7585C123.932 93.2473 124.351 92.0183 125.188 91.0716C126.017 90.1431 127.137 89.6788 128.548 89.6788C129.704 89.6788 130.66 89.9883 131.415 90.6073C132.171 91.2264 132.63 92.0502 132.794 93.0789H131.606C131.488 92.3597 131.142 91.7862 130.569 91.3584C130.013 90.9396 129.34 90.7302 128.548 90.7302C127.51 90.7302 126.681 91.0944 126.062 91.8226C125.443 92.5509 125.134 93.5295 125.134 94.7585C125.134 95.9874 125.443 96.966 126.062 97.6943C126.681 98.4226 127.51 98.7867 128.548 98.7867C129.467 98.7867 130.25 98.4908 130.896 97.8991C131.543 97.3074 131.866 96.5609 131.866 95.6597H128.766ZM148.662 99.6197H147.515V89.8973H148.662V99.6197ZM162.66 89.8973H170.457V90.935H167.153V99.6197H165.965V90.935H162.66V89.8973ZM191.033 99.6197H189.817L188.684 96.7931H184.26L183.14 99.6197H181.938L185.816 89.8973H187.1L191.033 99.6197ZM184.71 95.646L184.669 95.7553H188.274L188.22 95.6324C187.992 95.0771 187.4 93.5796 186.445 91.1399C185.798 92.8695 185.22 94.3716 184.71 95.646ZM205.982 89.8973V98.5819H210.87V99.6197H204.835V89.8973H205.982Z" fill="white"/>
</svg>
